<?xml version="1.0" standalone="no"?>
<!DOCTYPE svg PUBLIC "-//W3C//DTD SVG 20010904//EN"
 "http://www.w3.org/TR/2001/REC-SVG-20010904/DTD/svg10.dtd">
<svg version="1.0" xmlns="http://www.w3.org/2000/svg"
 width="393.000000pt" height="120.000000pt" viewBox="0 0 393.000000 120.000000"
 preserveAspectRatio="xMidYMid meet">

<g transform="translate(0.000000,120.000000) scale(0.100000,-0.100000)"
fill="#28844b" stroke="none">
<path d="M436 869 c-14 -71 2 -134 45 -184 23 -26 28 -39 23 -59 -10 -40 8
-30 43 25 l32 49 -49 65 c-26 35 -54 80 -61 99 -16 44 -25 45 -33 5z"/>
<path d="M560 881 c-23 -43 2 -91 47 -91 42 0 71 68 41 98 -20 20 -76 15 -88
-7z"/>
<path d="M128 774 c-7 -16 -12 -68 -13 -115 0 -79 3 -91 38 -161 58 -118 148
-177 283 -186 149 -9 244 63 244 186 0 67 -28 137 -47 119 -3 -3 1 -28 8 -56
12 -48 11 -53 -17 -107 -35 -69 -76 -94 -149 -94 -88 0 -203 71 -256 156 -32
52 -17 51 19 -1 18 -25 53 -59 79 -76 52 -32 119 -56 130 -46 10 11 16 112 9
152 -11 55 -58 100 -155 146 -47 22 -103 57 -123 76 l-37 36 -13 -29z"/>
<path d="M1704 756 c-12 -31 0 -51 30 -51 36 0 56 26 37 49 -17 20 -60 21 -67
2z"/>
<path d="M1400 718 l0 -43 20 30 c11 17 32 35 47 42 27 12 26 12 -19 13 l-48
0 0 -42z"/>
<path d="M1467 611 c-37 -82 -67 -152 -67 -155 0 -3 50 -6 110 -6 l110 0 0 48
0 47 -20 -32 c-10 -17 -28 -37 -39 -42 -19 -11 -71 -15 -71 -7 0 3 25 60 56
128 84 185 81 168 30 168 l-43 0 -66 -149z"/>
<path d="M3018 605 l-3 -155 45 0 45 0 -3 155 -3 155 -39 0 -39 0 -3 -155z"/>
<path d="M3143 746 c21 -21 23 -99 4 -117 -11 -11 -10 -16 5 -31 28 -28 25
-112 -4 -133 -22 -15 -22 -15 12 -9 55 10 83 27 92 56 13 39 -9 79 -52 93 -32
11 -33 12 -13 19 34 11 53 34 53 65 0 36 -24 57 -75 67 -37 7 -39 6 -22 -10z"/>
<path d="M3332 740 c-24 -23 -28 -50 -10 -68 30 -30 73 1 51 37 -7 11 -7 23
-1 34 13 24 -13 22 -40 -3z"/>
<path d="M3438 715 c6 -69 -4 -93 -69 -160 -35 -36 -59 -71 -59 -83 0 -21 4
-22 105 -22 l105 0 0 52 c0 45 -2 50 -13 34 -10 -14 -32 -20 -85 -24 -40 -2
-72 -1 -72 4 0 5 25 26 55 48 80 58 108 90 108 127 0 34 -31 69 -62 69 -13 0
-15 -8 -13 -45z"/>
<path d="M3598 605 l-3 -155 45 0 45 0 -3 155 -3 155 -39 0 -39 0 -3 -155z"/>
<path d="M3728 748 c18 -18 16 -117 -3 -125 -13 -4 -12 -8 6 -21 19 -13 21
-22 17 -78 -4 -62 -3 -64 19 -64 31 0 73 42 73 72 0 35 -26 65 -61 73 l-30 7
33 16 c54 27 52 102 -3 121 -44 15 -67 15 -51 -1z"/>
<path d="M2668 727 l-38 -9 0 -114 c0 -132 11 -154 77 -154 32 0 34 2 20 13
-14 10 -17 34 -19 142 l-3 131 -37 -9z"/>
<path d="M1698 555 l-3 -105 40 0 40 0 -3 105 -3 105 -34 0 -34 0 -3 -105z"/>
<path d="M1858 555 l-3 -105 43 0 42 0 0 105 0 105 -39 0 -40 0 -3 -105z"/>
<path d="M1983 654 c20 -6 22 -15 6 -31 -18 -18 -2 -45 23 -41 19 2 23 9 23
38 0 33 -2 35 -35 37 -19 1 -27 -1 -17 -3z"/>
<path d="M2110 640 c-16 -16 -18 -25 -10 -40 11 -21 45 -27 55 -10 9 14 -4 70
-16 70 -5 0 -18 -9 -29 -20z"/>
<path d="M2198 568 c2 -51 9 -99 14 -105 12 -15 74 -17 82 -4 3 5 -1 11 -9 15
-11 4 -15 23 -15 80 0 81 -13 106 -53 106 -21 0 -22 -3 -19 -92z"/>
<path d="M2376 641 c-23 -26 -17 -55 13 -59 32 -5 44 10 36 47 -8 36 -24 39
-49 12z"/>
<path d="M2465 564 c2 -67 7 -99 17 -105 18 -12 76 -11 83 1 3 6 -1 10 -9 10
-13 0 -16 14 -16 78 0 85 -14 112 -57 112 -19 0 -20 -5 -18 -96z"/>
<path d="M2102 534 c-41 -29 -17 -84 36 -84 26 0 27 2 27 50 0 44 -3 50 -20
50 -11 0 -31 -7 -43 -16z"/>
<path d="M2372 534 c-44 -31 -19 -84 40 -84 21 0 23 4 23 50 0 44 -3 50 -20
50 -11 0 -31 -7 -43 -16z"/>
</g>
</svg>
